<svg width="93" height="19" viewBox="0 0 93 19" fill="none" xmlns="http://www.w3.org/2000/svg">
<circle cx="28" cy="9" r="7" fill="white"/>
<path d="M7.17045 6.85227C7.13258 6.43561 6.96402 6.11174 6.66477 5.88068C6.36932 5.64583 5.94697 5.52841 5.39773 5.52841C5.03409 5.52841 4.73106 5.57576 4.48864 5.67045C4.24621 5.76515 4.06439 5.89583 3.94318 6.0625C3.82197 6.22538 3.75947 6.41288 3.75568 6.625C3.74811 6.79924 3.7822 6.95265 3.85795 7.08523C3.9375 7.2178 4.05114 7.33523 4.19886 7.4375C4.35038 7.53598 4.5322 7.62311 4.74432 7.69886C4.95644 7.77462 5.19508 7.84091 5.46023 7.89773L6.46023 8.125C7.03599 8.25 7.54356 8.41667 7.98295 8.625C8.42614 8.83333 8.79735 9.08144 9.09659 9.36932C9.39962 9.6572 9.62879 9.98864 9.78409 10.3636C9.93939 10.7386 10.0189 11.1591 10.0227 11.625C10.0189 12.3598 9.83333 12.9905 9.46591 13.517C9.09848 14.0436 8.57008 14.447 7.88068 14.7273C7.19508 15.0076 6.36742 15.1477 5.39773 15.1477C4.42424 15.1477 3.57576 15.0019 2.85227 14.7102C2.12879 14.4186 1.56629 13.9754 1.16477 13.3807C0.763258 12.786 0.556818 12.0341 0.545455 11.125H3.23864C3.26136 11.5 3.36174 11.8125 3.53977 12.0625C3.7178 12.3125 3.96212 12.5019 4.27273 12.6307C4.58712 12.7595 4.95076 12.8239 5.36364 12.8239C5.74242 12.8239 6.06439 12.7727 6.32955 12.6705C6.59849 12.5682 6.80492 12.4261 6.94886 12.2443C7.0928 12.0625 7.16667 11.8542 7.17045 11.6193C7.16667 11.3996 7.09849 11.2121 6.96591 11.0568C6.83333 10.8977 6.62879 10.7614 6.35227 10.6477C6.07955 10.5303 5.73106 10.4223 5.30682 10.3239L4.09091 10.0398C3.08333 9.80871 2.28977 9.43561 1.71023 8.92045C1.13068 8.40151 0.842803 7.70076 0.846591 6.81818C0.842803 6.09848 1.03598 5.4678 1.42614 4.92614C1.81629 4.38447 2.35606 3.96212 3.04545 3.65909C3.73485 3.35606 4.52083 3.20455 5.40341 3.20455C6.30492 3.20455 7.08712 3.35795 7.75 3.66477C8.41667 3.9678 8.93371 4.39394 9.30114 4.94318C9.66856 5.49242 9.85606 6.12879 9.86364 6.85227H7.17045ZM11.4432 15V3.36364H16.25C17.1212 3.36364 17.8731 3.53409 18.5057 3.875C19.142 4.21212 19.6326 4.68371 19.9773 5.28977C20.322 5.89205 20.4943 6.5928 20.4943 7.39205C20.4943 8.19508 20.3182 8.89773 19.9659 9.5C19.6174 10.0985 19.1193 10.5625 18.4716 10.892C17.8239 11.2216 17.0549 11.3864 16.1648 11.3864H13.1989V9.17045H15.642C16.0663 9.17045 16.4205 9.09659 16.7045 8.94886C16.9924 8.80114 17.2102 8.5947 17.358 8.32955C17.5057 8.06061 17.5795 7.74811 17.5795 7.39205C17.5795 7.0322 17.5057 6.72159 17.358 6.46023C17.2102 6.19508 16.9924 5.99053 16.7045 5.84659C16.4167 5.70265 16.0625 5.63068 15.642 5.63068H14.2557V15H11.4432ZM35.6307 15V3.36364H40.4375C41.3087 3.36364 42.0606 3.52083 42.6932 3.83523C43.3295 4.14583 43.8201 4.5928 44.1648 5.17614C44.5095 5.75568 44.6818 6.44318 44.6818 7.23864C44.6818 8.04545 44.5057 8.73106 44.1534 9.29545C43.8011 9.85606 43.3011 10.2841 42.6534 10.5795C42.0057 10.8712 41.2386 11.017 40.3523 11.017H37.3125V8.80114H39.8295C40.2538 8.80114 40.608 8.74621 40.892 8.63636C41.1799 8.52273 41.3977 8.35227 41.5455 8.125C41.6932 7.89394 41.767 7.59848 41.767 7.23864C41.767 6.87879 41.6932 6.58144 41.5455 6.34659C41.3977 6.10795 41.1799 5.92992 40.892 5.8125C40.6042 5.69129 40.25 5.63068 39.8295 5.63068H38.4432V15H35.6307ZM42.1818 9.68182L45.0795 15H42.0114L39.1705 9.68182H42.1818ZM45.8438 5.64773V3.36364H55.679V5.64773H52.1506V15H49.3778V5.64773H45.8438ZM57.0526 15V3.36364H59.8651V12.7159H64.706V15H57.0526ZM68.9744 3.36364V15H66.1619V3.36364H68.9744ZM73.3821 3.36364L75.9844 11.8864H76.081L78.6832 3.36364H81.831L77.9048 15H74.1605L70.2344 3.36364H73.3821ZM83.0838 15V3.36364H91.1974V5.64773H85.8963V8.03409H90.7827V10.3239H85.8963V12.7159H91.1974V15H83.0838Z" fill="white"/>
<circle cx="28" cy="9.3723" r="2" fill="#FF5757"/>
<path fill-rule="evenodd" clip-rule="evenodd" d="M26.7439 6.64711L25.7432 6.06931C24.6906 6.78987 24 8.00043 24 9.3723C24 10.7442 24.6906 11.9547 25.7432 12.6753L26.7439 12.0975C25.7144 11.6222 25 10.5807 25 9.3723C25 8.16392 25.7144 7.12241 26.7439 6.64711ZM29.2561 6.64711C30.2856 7.12241 31 8.16392 31 9.3723C31 10.5807 30.2856 11.6222 29.2561 12.0975L30.2568 12.6753C31.3094 11.9547 32 10.7442 32 9.3723C32 8.00043 31.3094 6.78987 30.2568 6.06931L29.2561 6.64711Z" fill="#FF5757"/>
<path fill-rule="evenodd" clip-rule="evenodd" d="M23.8911 5L24.8039 5.52701C23.7017 6.44418 23 7.82629 23 9.37229C23 10.9183 23.7017 12.3004 24.8039 13.2176L23.8911 13.7446C22.727 12.6502 22 11.0961 22 9.37229C22 7.64845 22.727 6.0944 23.8911 5ZM32.1089 13.7446C33.273 12.6502 34 11.0961 34 9.37229C34 7.64845 33.273 6.0944 32.1089 5L31.1961 5.52702C32.2983 6.44418 33 7.82629 33 9.37229C33 10.9183 32.2983 12.3004 31.1961 13.2176L32.1089 13.7446Z" fill="#FF5757"/>
</svg>
